<mxfile host="65bd71144e">
    <diagram id="2KhIsbDiPvBkP_OM17Oy" name="Page-1">
        <mxGraphModel dx="2930" dy="2095" grid="0" gridSize="4" guides="1" tooltips="1" connect="1" arrows="1" fold="1" page="0" pageScale="1" pageWidth="850" pageHeight="1100" background="#ffffff" math="0" shadow="0">
            <root>
                <mxCell id="0"/>
                <mxCell id="1" parent="0"/>
                <mxCell id="398" value="ImplementationView" style="shape=umlFrame;whiteSpace=wrap;html=1;width=120;height=30;boundedLbl=1;verticalAlign=middle;align=left;spacingLeft=5;fillColor=none;gradientColor=none;swimlaneFillColor=none;strokeColor=#000000;fontColor=#000000;labelBorderColor=none;" vertex="1" parent="1">
                    <mxGeometry x="1262" y="1487" width="1069" height="651" as="geometry"/>
                </mxCell>
                <mxCell id="311" value="PhysicalView" style="shape=umlFrame;whiteSpace=wrap;html=1;width=120;height=30;boundedLbl=1;verticalAlign=middle;align=left;spacingLeft=5;fillColor=none;gradientColor=none;swimlaneFillColor=none;strokeColor=#000000;fontColor=#000000;labelBorderColor=none;" vertex="1" parent="1">
                    <mxGeometry x="1262" y="297" width="1067" height="672" as="geometry"/>
                </mxCell>
                <mxCell id="168" value="" style="whiteSpace=wrap;html=1;labelBackgroundColor=none;labelBorderColor=default;strokeColor=none;fontColor=#000000;fillColor=none;" parent="1" vertex="1">
                    <mxGeometry x="1165" y="194" width="1226" height="2020" as="geometry"/>
                </mxCell>
                <mxCell id="312" value="LogicalView" style="shape=umlFrame;whiteSpace=wrap;html=1;width=120;height=30;boundedLbl=1;verticalAlign=middle;align=left;spacingLeft=5;fillColor=none;gradientColor=none;swimlaneFillColor=none;strokeColor=#000000;fontColor=#000000;labelBorderColor=none;" vertex="1" parent="1">
                    <mxGeometry x="1264" y="1019" width="1065" height="416" as="geometry"/>
                </mxCell>
                <mxCell id="282" style="edgeStyle=none;html=1;exitX=0.753;exitY=0.003;exitDx=0;exitDy=0;exitPerimeter=0;entryX=0.387;entryY=1.002;entryDx=0;entryDy=0;entryPerimeter=0;fontSize=13;fontColor=#000000;endArrow=none;endFill=0;strokeColor=#000000;" edge="1" parent="1" source="285" target="294">
                    <mxGeometry relative="1" as="geometry"/>
                </mxCell>
                <mxCell id="283" value="HTTP(S)" style="edgeLabel;html=1;align=center;verticalAlign=middle;resizable=0;points=[];fontSize=13;fontColor=#000000;labelBackgroundColor=none;rotation=0;" vertex="1" connectable="0" parent="282">
                    <mxGeometry x="0.1171" relative="1" as="geometry">
                        <mxPoint x="-33" y="12" as="offset"/>
                    </mxGeometry>
                </mxCell>
                <mxCell id="284" value="HTTP(S)" style="edgeStyle=none;html=1;exitX=0;exitY=0;exitDx=117;exitDy=0;exitPerimeter=0;entryX=0.427;entryY=1.003;entryDx=0;entryDy=0;entryPerimeter=0;strokeColor=#000000;fontSize=13;fontColor=#000000;endArrow=none;endFill=0;labelBackgroundColor=none;" edge="1" parent="1" source="285" target="302">
                    <mxGeometry x="0.003" y="13" relative="1" as="geometry">
                        <mxPoint as="offset"/>
                    </mxGeometry>
                </mxCell>
                <mxCell id="285" value="User PC" style="verticalAlign=top;align=left;shape=cube;size=10;direction=south;fontStyle=0;html=1;boundedLbl=1;spacingLeft=5;fillColor=#FBF6E4;strokeColor=#000000;fontColor=#000000;" vertex="1" parent="1">
                    <mxGeometry x="1413" y="331" width="200" height="244" as="geometry"/>
                </mxCell>
                <mxCell id="286" value="Browser" style="verticalAlign=top;align=center;shape=cube;size=10;direction=south;html=1;boundedLbl=1;spacingLeft=5;fontColor=#000000;fillColor=#FFF2CC;strokeColor=#000000;" vertex="1" parent="285">
                    <mxGeometry width="160" height="180" relative="1" as="geometry">
                        <mxPoint x="10" y="50" as="offset"/>
                    </mxGeometry>
                </mxCell>
                <mxCell id="287" value="&amp;nbsp; &amp;nbsp;WebSPA" style="html=1;dropTarget=0;fillColor=#f2dbc0;strokeColor=#000000;fontColor=#000000;verticalAlign=middle;align=left;" vertex="1" parent="285">
                    <mxGeometry x="32" y="94" width="96" height="46" as="geometry"/>
                </mxCell>
                <mxCell id="288" value="" style="shape=module;jettyWidth=8;jettyHeight=4;fillColor=#f2dbc0;strokeColor=#000000;" vertex="1" parent="287">
                    <mxGeometry x="1" width="20" height="20" relative="1" as="geometry">
                        <mxPoint x="-27" y="7" as="offset"/>
                    </mxGeometry>
                </mxCell>
                <mxCell id="289" value="&amp;nbsp; &amp;nbsp;Backend" style="html=1;dropTarget=0;fillColor=#f2dbc0;strokeColor=#000000;fontColor=#000000;verticalAlign=middle;align=left;" vertex="1" parent="285">
                    <mxGeometry x="32" y="160" width="96" height="44" as="geometry"/>
                </mxCell>
                <mxCell id="290" value="" style="shape=module;jettyWidth=8;jettyHeight=4;fillColor=#f2dbc0;strokeColor=#000000;" vertex="1" parent="289">
                    <mxGeometry x="1" width="20" height="20" relative="1" as="geometry">
                        <mxPoint x="-27" y="7" as="offset"/>
                    </mxGeometry>
                </mxCell>
                <mxCell id="291" style="edgeStyle=none;html=1;exitX=0.692;exitY=0.999;exitDx=0;exitDy=0;exitPerimeter=0;entryX=0.689;entryY=0.003;entryDx=0;entryDy=0;entryPerimeter=0;labelBackgroundColor=none;strokeColor=#000000;fontSize=13;fontColor=#000000;endArrow=none;endFill=0;" edge="1" parent="1" source="294" target="297">
                    <mxGeometry relative="1" as="geometry"/>
                </mxCell>
                <mxCell id="292" value="HTTP(S)" style="edgeLabel;html=1;align=center;verticalAlign=middle;resizable=0;points=[];fontSize=13;fontColor=#000000;labelBackgroundColor=none;" vertex="1" connectable="0" parent="291">
                    <mxGeometry x="0.2287" y="-2" relative="1" as="geometry">
                        <mxPoint x="6" y="15" as="offset"/>
                    </mxGeometry>
                </mxCell>
                <mxCell id="293" style="edgeStyle=none;html=1;strokeColor=#000000;endArrow=none;endFill=0;entryX=-0.002;entryY=0.396;entryDx=0;entryDy=0;entryPerimeter=0;" edge="1" parent="1" source="294" target="307">
                    <mxGeometry relative="1" as="geometry">
                        <mxPoint x="1859" y="835" as="targetPoint"/>
                    </mxGeometry>
                </mxCell>
                <mxCell id="294" value="InWebServer01" style="verticalAlign=top;align=center;shape=cube;size=10;direction=south;fontStyle=0;html=1;boundedLbl=1;spacingLeft=5;fillColor=#FBF6E4;strokeColor=#000000;fontColor=#000000;" vertex="1" parent="1">
                    <mxGeometry x="1759" y="667" width="200" height="104" as="geometry"/>
                </mxCell>
                <mxCell id="295" value="&amp;nbsp; ManagementCore" style="html=1;dropTarget=0;fillColor=#f2dbc0;strokeColor=#000000;fontColor=#000000;verticalAlign=middle;align=left;" vertex="1" parent="1">
                    <mxGeometry x="1785" y="715.0031147540983" width="140" height="40.72131147540984" as="geometry"/>
                </mxCell>
                <mxCell id="296" value="" style="shape=module;jettyWidth=8;jettyHeight=4;fillColor=#f2dbc0;strokeColor=#000000;" vertex="1" parent="295">
                    <mxGeometry x="1" width="20" height="20" relative="1" as="geometry">
                        <mxPoint x="-27" y="7" as="offset"/>
                    </mxGeometry>
                </mxCell>
                <mxCell id="297" value="InWebServer02" style="verticalAlign=top;align=center;shape=cube;size=10;direction=south;fontStyle=0;html=1;boundedLbl=1;spacingLeft=5;fillColor=#FBF6E4;strokeColor=#000000;fontColor=#000000;" vertex="1" parent="1">
                    <mxGeometry x="1413" y="667" width="200" height="104" as="geometry"/>
                </mxCell>
                <mxCell id="298" value="Planning" style="html=1;dropTarget=0;fillColor=#f2dbc0;strokeColor=#000000;fontColor=#000000;verticalAlign=middle;align=center;" vertex="1" parent="1">
                    <mxGeometry x="1451" y="711" width="124" height="40.72" as="geometry"/>
                </mxCell>
                <mxCell id="299" value="" style="shape=module;jettyWidth=8;jettyHeight=4;fillColor=#f2dbc0;strokeColor=#000000;" vertex="1" parent="298">
                    <mxGeometry x="1" width="20" height="20" relative="1" as="geometry">
                        <mxPoint x="-27" y="7" as="offset"/>
                    </mxGeometry>
                </mxCell>
                <mxCell id="300" style="edgeStyle=none;html=1;exitX=0;exitY=0;exitDx=220;exitDy=108.99999999999999;exitPerimeter=0;entryX=0;entryY=0;entryDx=0;entryDy=95;entryPerimeter=0;labelBackgroundColor=none;strokeColor=#000000;fontSize=13;fontColor=#000000;endArrow=none;endFill=0;" edge="1" parent="1" source="302" target="294">
                    <mxGeometry relative="1" as="geometry"/>
                </mxCell>
                <mxCell id="301" value="HTTP(S)" style="edgeLabel;html=1;align=center;verticalAlign=middle;resizable=0;points=[];fontSize=13;fontColor=#000000;labelBackgroundColor=none;" vertex="1" connectable="0" parent="300">
                    <mxGeometry x="0.2737" relative="1" as="geometry">
                        <mxPoint x="29" y="-7" as="offset"/>
                    </mxGeometry>
                </mxCell>
                <mxCell id="302" value="StaticWebServer" style="verticalAlign=top;align=center;shape=cube;size=10;direction=south;fontStyle=0;html=1;boundedLbl=1;spacingLeft=5;fillColor=#FBF6E4;strokeColor=#000000;fontColor=#000000;" vertex="1" parent="1">
                    <mxGeometry x="1765" y="355" width="208" height="220" as="geometry"/>
                </mxCell>
                <mxCell id="303" value="«Artifacts»&lt;br style=&quot;font-size: 13px;&quot;&gt;&lt;div style=&quot;font-size: 13px;&quot;&gt;&lt;span style=&quot;background-color: initial; font-size: 13px;&quot;&gt;WebSPA&lt;/span&gt;&lt;/div&gt;" style="html=1;dropTarget=0;fillColor=#f2dbc0;strokeColor=#000000;fontColor=#000000;verticalAlign=middle;align=center;fontSize=13;" vertex="1" parent="1">
                    <mxGeometry x="1789" y="411" width="144" height="55.28" as="geometry"/>
                </mxCell>
                <mxCell id="304" value="" style="shape=module;jettyWidth=8;jettyHeight=4;fillColor=#f2dbc0;strokeColor=#000000;" vertex="1" parent="303">
                    <mxGeometry x="1" width="20" height="20" relative="1" as="geometry">
                        <mxPoint x="-27" y="7" as="offset"/>
                    </mxGeometry>
                </mxCell>
                <mxCell id="305" value="«Artifacts»&lt;br style=&quot;font-size: 13px;&quot;&gt;&lt;div style=&quot;font-size: 13px;&quot;&gt;3D Visualization&lt;/div&gt;" style="html=1;dropTarget=0;fillColor=#f2dbc0;strokeColor=#000000;fontColor=#000000;verticalAlign=middle;align=center;fontSize=13;" vertex="1" parent="1">
                    <mxGeometry x="1789" y="495" width="148" height="55.28" as="geometry"/>
                </mxCell>
                <mxCell id="306" value="" style="shape=module;jettyWidth=8;jettyHeight=4;fillColor=#f2dbc0;strokeColor=#000000;" vertex="1" parent="305">
                    <mxGeometry x="1" width="20" height="20" relative="1" as="geometry">
                        <mxPoint x="-27" y="7" as="offset"/>
                    </mxGeometry>
                </mxCell>
                <mxCell id="307" value="InWebServer03&lt;br&gt;" style="verticalAlign=top;align=center;shape=cube;size=10;direction=south;fontStyle=0;html=1;boundedLbl=1;spacingLeft=5;fillColor=#FBF6E4;strokeColor=#000000;fontColor=#000000;" vertex="1" parent="1">
                    <mxGeometry x="1709" y="839" width="250" height="104" as="geometry"/>
                </mxCell>
                <mxCell id="308" value="MedicalRecordManagement" style="html=1;dropTarget=0;fillColor=#f2dbc0;strokeColor=#000000;fontColor=#000000;verticalAlign=middle;align=left;" vertex="1" parent="1">
                    <mxGeometry x="1737" y="883" width="192" height="40.72" as="geometry"/>
                </mxCell>
                <mxCell id="309" value="" style="shape=module;jettyWidth=8;jettyHeight=4;fillColor=#f2dbc0;strokeColor=#000000;" vertex="1" parent="308">
                    <mxGeometry x="1" width="20" height="20" relative="1" as="geometry">
                        <mxPoint x="-27" y="7" as="offset"/>
                    </mxGeometry>
                </mxCell>
                <mxCell id="310" value="HTTP(S)" style="edgeLabel;html=1;align=center;verticalAlign=middle;resizable=0;points=[];fontSize=13;fontColor=#000000;labelBackgroundColor=none;" vertex="1" connectable="0" parent="1">
                    <mxGeometry x="1709.00445393918" y="755.7267242951193" as="geometry">
                        <mxPoint x="182" y="47" as="offset"/>
                    </mxGeometry>
                </mxCell>
                <mxCell id="335" style="edgeStyle=none;html=1;strokeColor=#000000;fontColor=#000000;endArrow=circle;endFill=0;" edge="1" parent="1">
                    <mxGeometry relative="1" as="geometry">
                        <mxPoint x="1937" y="1177" as="targetPoint"/>
                        <mxPoint x="1977" y="1177" as="sourcePoint"/>
                    </mxGeometry>
                </mxCell>
                <mxCell id="336" value="UI" style="edgeLabel;html=1;align=center;verticalAlign=middle;resizable=0;points=[];fontColor=#000000;labelBackgroundColor=none;" vertex="1" connectable="0" parent="335">
                    <mxGeometry x="0.4139" y="-5" relative="1" as="geometry">
                        <mxPoint x="-3" y="19" as="offset"/>
                    </mxGeometry>
                </mxCell>
                <mxCell id="337" style="edgeStyle=none;html=1;strokeColor=#000000;fontColor=#000000;endArrow=halfCircle;endFill=0;exitX=1.038;exitY=0.404;exitDx=0;exitDy=0;exitPerimeter=0;" edge="1" parent="1" source="354">
                    <mxGeometry relative="1" as="geometry">
                        <mxPoint x="2283" y="1174" as="targetPoint"/>
                        <mxPoint x="2249" y="1217" as="sourcePoint"/>
                    </mxGeometry>
                </mxCell>
                <mxCell id="338" value="A" style="edgeLabel;html=1;align=center;verticalAlign=middle;resizable=0;points=[];fontColor=#000000;labelBackgroundColor=none;" vertex="1" connectable="0" parent="337">
                    <mxGeometry x="0.8658" y="7" relative="1" as="geometry">
                        <mxPoint x="11" y="7" as="offset"/>
                    </mxGeometry>
                </mxCell>
                <mxCell id="339" style="edgeStyle=none;html=1;exitX=0.5;exitY=1;exitDx=0;exitDy=0;entryX=0.5;entryY=1;entryDx=0;entryDy=0;strokeColor=#000000;endArrow=box;endFill=0;" edge="1" parent="1" source="342" target="346">
                    <mxGeometry relative="1" as="geometry"/>
                </mxCell>
                <mxCell id="340" style="edgeStyle=none;html=1;strokeColor=#000000;endArrow=halfCircle;endFill=0;" edge="1" parent="1">
                    <mxGeometry relative="1" as="geometry">
                        <mxPoint x="2247" y="1268" as="sourcePoint"/>
                        <mxPoint x="2279" y="1269" as="targetPoint"/>
                    </mxGeometry>
                </mxCell>
                <mxCell id="341" value="B" style="edgeLabel;html=1;align=center;verticalAlign=middle;resizable=0;points=[];labelBackgroundColor=none;fontColor=#000000;" vertex="1" connectable="0" parent="340">
                    <mxGeometry x="0.3977" y="2" relative="1" as="geometry">
                        <mxPoint x="16" y="2" as="offset"/>
                    </mxGeometry>
                </mxCell>
                <mxCell id="342" value="&lt;br&gt;&lt;b&gt;Frontend&lt;br&gt;&lt;br&gt;&lt;br&gt;&lt;br&gt;&lt;br&gt;&lt;br&gt;&lt;br&gt;&lt;br&gt;&lt;br&gt;&lt;br&gt;&lt;br&gt;&lt;br&gt;&lt;br&gt;&lt;/b&gt;" style="html=1;dropTarget=0;fillColor=#fbf6e4;strokeColor=#000000;fontColor=#000000;" vertex="1" parent="1">
                    <mxGeometry x="1977" y="1098" width="270" height="220" as="geometry"/>
                </mxCell>
                <mxCell id="343" value="" style="shape=module;jettyWidth=8;jettyHeight=4;fillColor=#fbf6e4;strokeColor=#000000;" vertex="1" parent="342">
                    <mxGeometry x="1" width="20" height="20" relative="1" as="geometry">
                        <mxPoint x="-27" y="7" as="offset"/>
                    </mxGeometry>
                </mxCell>
                <mxCell id="344" style="edgeStyle=none;html=1;exitX=0;exitY=0.5;exitDx=0;exitDy=0;strokeColor=#000000;endArrow=box;endFill=0;" edge="1" parent="1" source="349">
                    <mxGeometry relative="1" as="geometry">
                        <mxPoint x="1977" y="1178" as="targetPoint"/>
                    </mxGeometry>
                </mxCell>
                <mxCell id="345" style="edgeStyle=none;html=1;entryX=1.001;entryY=0.775;entryDx=0;entryDy=0;entryPerimeter=0;endArrow=box;endFill=0;strokeColor=#000000;" edge="1" parent="1" source="346" target="342">
                    <mxGeometry relative="1" as="geometry"/>
                </mxCell>
                <mxCell id="346" value="Visualization 3D" style="html=1;dropTarget=0;fillColor=#f2dbc0;strokeColor=#000000;fontColor=#000000;" vertex="1" parent="1">
                    <mxGeometry x="2002" y="1243" width="175" height="55" as="geometry"/>
                </mxCell>
                <mxCell id="347" value="" style="shape=module;jettyWidth=8;jettyHeight=4;fillColor=#f2dbc0;strokeColor=#000000;" vertex="1" parent="346">
                    <mxGeometry x="1" width="20" height="20" relative="1" as="geometry">
                        <mxPoint x="-27" y="7" as="offset"/>
                    </mxGeometry>
                </mxCell>
                <mxCell id="348" style="edgeStyle=none;html=1;exitX=1;exitY=0.5;exitDx=0;exitDy=0;entryX=0;entryY=0.5;entryDx=0;entryDy=0;strokeColor=#000000;endArrow=none;endFill=0;" edge="1" parent="1" source="349" target="354">
                    <mxGeometry relative="1" as="geometry">
                        <Array as="points"/>
                    </mxGeometry>
                </mxCell>
                <mxCell id="349" value="WebSPA" style="html=1;dropTarget=0;fillColor=#f2dbc0;strokeColor=#000000;fontColor=#000000;" vertex="1" parent="1">
                    <mxGeometry x="2027" y="1153" width="120" height="50" as="geometry"/>
                </mxCell>
                <mxCell id="350" value="" style="shape=module;jettyWidth=8;jettyHeight=4;fillColor=#f2dbc0;strokeColor=#000000;" vertex="1" parent="349">
                    <mxGeometry x="1" width="20" height="20" relative="1" as="geometry">
                        <mxPoint x="-27" y="7" as="offset"/>
                    </mxGeometry>
                </mxCell>
                <mxCell id="351" style="edgeStyle=none;html=1;exitX=1;exitY=0.5;exitDx=0;exitDy=0;exitPerimeter=0;strokeColor=#000000;endArrow=none;endFill=0;entryX=0.521;entryY=0.998;entryDx=0;entryDy=0;entryPerimeter=0;" edge="1" parent="1" source="353" target="349">
                    <mxGeometry relative="1" as="geometry"/>
                </mxCell>
                <mxCell id="352" style="edgeStyle=none;html=1;exitX=0;exitY=0.5;exitDx=0;exitDy=0;exitPerimeter=0;entryX=0.5;entryY=0;entryDx=0;entryDy=0;strokeColor=#000000;endArrow=none;endFill=0;" edge="1" parent="1" source="353" target="346">
                    <mxGeometry relative="1" as="geometry"/>
                </mxCell>
                <mxCell id="353" value="" style="shape=providedRequiredInterface;html=1;verticalLabelPosition=bottom;sketch=0;fillColor=none;strokeColor=#000000;direction=north;" vertex="1" parent="1">
                    <mxGeometry x="2082" y="1213" width="15" height="15" as="geometry"/>
                </mxCell>
                <mxCell id="354" value="" style="fontStyle=0;labelPosition=right;verticalLabelPosition=middle;align=left;verticalAlign=middle;spacingLeft=2;strokeColor=#000000;fillColor=none;" vertex="1" parent="1">
                    <mxGeometry x="2237" y="1173" width="10" height="10" as="geometry"/>
                </mxCell>
                <mxCell id="357" style="edgeStyle=none;html=1;strokeColor=#000000;fontColor=#000000;endArrow=circle;endFill=0;exitX=0;exitY=0.786;exitDx=0;exitDy=0;exitPerimeter=0;" edge="1" parent="1" source="364">
                    <mxGeometry relative="1" as="geometry">
                        <mxPoint x="1349" y="1267.07" as="targetPoint"/>
                        <mxPoint x="1113" y="1159.07" as="sourcePoint"/>
                    </mxGeometry>
                </mxCell>
                <mxCell id="358" value="A" style="edgeLabel;html=1;align=center;verticalAlign=middle;resizable=0;points=[];fontColor=#000000;labelBackgroundColor=none;" vertex="1" connectable="0" parent="357">
                    <mxGeometry x="0.4139" y="-5" relative="1" as="geometry">
                        <mxPoint x="-3" y="23" as="offset"/>
                    </mxGeometry>
                </mxCell>
                <mxCell id="359" style="edgeStyle=none;html=1;strokeColor=#000000;fontColor=#000000;endArrow=halfCircle;endFill=0;exitX=0.458;exitY=0.999;exitDx=0;exitDy=0;exitPerimeter=0;" edge="1" parent="1" source="364">
                    <mxGeometry relative="1" as="geometry">
                        <mxPoint x="1585" y="1336.07" as="targetPoint"/>
                        <mxPoint x="1513" y="1314.07" as="sourcePoint"/>
                    </mxGeometry>
                </mxCell>
                <mxCell id="360" value="IAM API" style="edgeLabel;html=1;align=center;verticalAlign=middle;resizable=0;points=[];fontColor=#000000;labelBackgroundColor=none;" vertex="1" connectable="0" parent="359">
                    <mxGeometry x="0.7733" y="5" relative="1" as="geometry">
                        <mxPoint x="-6" y="13" as="offset"/>
                    </mxGeometry>
                </mxCell>
                <mxCell id="361" style="edgeStyle=none;html=1;strokeColor=#000000;fontColor=#000000;endArrow=halfCircle;endFill=0;exitX=1;exitY=0.5;exitDx=0;exitDy=0;" edge="1" parent="1" source="377">
                    <mxGeometry relative="1" as="geometry">
                        <mxPoint x="1849" y="1266.07" as="targetPoint"/>
                        <mxPoint x="1861" y="1266.07" as="sourcePoint"/>
                    </mxGeometry>
                </mxCell>
                <mxCell id="362" value="SMTP &lt;br&gt;API" style="edgeLabel;html=1;align=center;verticalAlign=middle;resizable=0;points=[];fontColor=#000000;labelBackgroundColor=none;" vertex="1" connectable="0" parent="361">
                    <mxGeometry x="0.8658" y="7" relative="1" as="geometry">
                        <mxPoint x="23" y="7" as="offset"/>
                    </mxGeometry>
                </mxCell>
                <mxCell id="363" style="edgeStyle=none;html=1;exitX=0.5;exitY=1;exitDx=0;exitDy=0;entryX=0.5;entryY=1;entryDx=0;entryDy=0;strokeColor=#000000;endArrow=box;endFill=0;" edge="1" parent="1" source="364" target="369">
                    <mxGeometry relative="1" as="geometry"/>
                </mxCell>
                <mxCell id="364" value="&lt;br&gt;&lt;b&gt;Backend&lt;br&gt;&lt;br&gt;&lt;br&gt;&lt;br&gt;&lt;br&gt;&lt;br&gt;&lt;br&gt;&lt;br&gt;&lt;br&gt;&lt;br&gt;&lt;br&gt;&lt;br&gt;&lt;br&gt;&lt;br&gt;&lt;/b&gt;" style="html=1;dropTarget=0;fillColor=#fbf6e4;strokeColor=#000000;fontColor=#000000;" vertex="1" parent="1">
                    <mxGeometry x="1388" y="1094.07" width="431" height="220" as="geometry"/>
                </mxCell>
                <mxCell id="365" value="" style="shape=module;jettyWidth=8;jettyHeight=4;fillColor=#fbf6e4;strokeColor=#000000;" vertex="1" parent="364">
                    <mxGeometry x="1" width="20" height="20" relative="1" as="geometry">
                        <mxPoint x="-27" y="7" as="offset"/>
                    </mxGeometry>
                </mxCell>
                <mxCell id="366" style="edgeStyle=none;html=1;exitX=0;exitY=0.5;exitDx=0;exitDy=0;entryX=0;entryY=0.785;entryDx=0;entryDy=0;entryPerimeter=0;strokeColor=#000000;endArrow=box;endFill=0;" edge="1" parent="1" source="369" target="364">
                    <mxGeometry relative="1" as="geometry"/>
                </mxCell>
                <mxCell id="367" style="edgeStyle=none;html=1;exitX=0.5;exitY=1;exitDx=0;exitDy=0;strokeColor=#000000;endArrow=box;endFill=0;entryX=0.458;entryY=1;entryDx=0;entryDy=0;entryPerimeter=0;" edge="1" parent="1" source="369" target="364">
                    <mxGeometry relative="1" as="geometry">
                        <mxPoint x="1585" y="1314.07" as="targetPoint"/>
                    </mxGeometry>
                </mxCell>
                <mxCell id="368" style="edgeStyle=none;html=1;exitX=1;exitY=0.5;exitDx=0;exitDy=0;entryX=0;entryY=0.5;entryDx=0;entryDy=0;endArrow=none;endFill=0;strokeColor=#000000;" edge="1" parent="1" source="369" target="377">
                    <mxGeometry relative="1" as="geometry"/>
                </mxCell>
                <mxCell id="369" value="ManagementCore" style="html=1;dropTarget=0;fillColor=#f2dbc0;strokeColor=#000000;fontColor=#000000;" vertex="1" parent="1">
                    <mxGeometry x="1498" y="1239.07" width="175" height="55" as="geometry"/>
                </mxCell>
                <mxCell id="370" value="" style="shape=module;jettyWidth=8;jettyHeight=4;fillColor=#f2dbc0;strokeColor=#000000;" vertex="1" parent="369">
                    <mxGeometry x="1" width="20" height="20" relative="1" as="geometry">
                        <mxPoint x="-27" y="7" as="offset"/>
                    </mxGeometry>
                </mxCell>
                <mxCell id="371" style="edgeStyle=none;html=1;exitX=0;exitY=0.5;exitDx=0;exitDy=0;entryX=0.001;entryY=0.367;entryDx=0;entryDy=0;entryPerimeter=0;strokeColor=#000000;endArrow=box;endFill=0;" edge="1" parent="1" source="372" target="364">
                    <mxGeometry relative="1" as="geometry"/>
                </mxCell>
                <mxCell id="372" value="Planning" style="html=1;dropTarget=0;fillColor=#f2dbc0;strokeColor=#000000;fontColor=#000000;" vertex="1" parent="1">
                    <mxGeometry x="1433" y="1150.07" width="120" height="50" as="geometry"/>
                </mxCell>
                <mxCell id="373" value="" style="shape=module;jettyWidth=8;jettyHeight=4;fillColor=#f2dbc0;strokeColor=#000000;" vertex="1" parent="372">
                    <mxGeometry x="1" width="20" height="20" relative="1" as="geometry">
                        <mxPoint x="-27" y="7" as="offset"/>
                    </mxGeometry>
                </mxCell>
                <mxCell id="374" style="edgeStyle=none;html=1;exitX=1;exitY=0.5;exitDx=0;exitDy=0;exitPerimeter=0;strokeColor=#000000;endArrow=none;endFill=0;entryX=0.269;entryY=-0.002;entryDx=0;entryDy=0;entryPerimeter=0;" edge="1" parent="1" source="376" target="369">
                    <mxGeometry relative="1" as="geometry"/>
                </mxCell>
                <mxCell id="375" style="edgeStyle=none;html=1;exitX=0;exitY=0.5;exitDx=0;exitDy=0;exitPerimeter=0;strokeColor=#000000;endArrow=none;endFill=0;entryX=0.934;entryY=0.997;entryDx=0;entryDy=0;entryPerimeter=0;" edge="1" parent="1" source="376" target="372">
                    <mxGeometry relative="1" as="geometry"/>
                </mxCell>
                <mxCell id="376" value="" style="shape=providedRequiredInterface;html=1;verticalLabelPosition=bottom;sketch=0;fillColor=none;strokeColor=#000000;direction=south;" vertex="1" parent="1">
                    <mxGeometry x="1538" y="1209.07" width="15" height="15" as="geometry"/>
                </mxCell>
                <mxCell id="377" value="" style="fontStyle=0;labelPosition=right;verticalLabelPosition=middle;align=left;verticalAlign=middle;spacingLeft=2;strokeColor=#000000;fillColor=none;" vertex="1" parent="1">
                    <mxGeometry x="1809" y="1261.57" width="10" height="10" as="geometry"/>
                </mxCell>
                <mxCell id="378" style="edgeStyle=none;html=1;strokeColor=#000000;fontColor=#000000;endArrow=circle;endFill=0;exitX=0;exitY=0.786;exitDx=0;exitDy=0;exitPerimeter=0;" edge="1" parent="1">
                    <mxGeometry relative="1" as="geometry">
                        <mxPoint x="1349" y="1173.9399999999998" as="targetPoint"/>
                        <mxPoint x="1388" y="1173.86" as="sourcePoint"/>
                    </mxGeometry>
                </mxCell>
                <mxCell id="379" value="B" style="edgeLabel;html=1;align=center;verticalAlign=middle;resizable=0;points=[];fontColor=#000000;labelBackgroundColor=none;" vertex="1" connectable="0" parent="378">
                    <mxGeometry x="0.4139" y="-5" relative="1" as="geometry">
                        <mxPoint x="-3" y="23" as="offset"/>
                    </mxGeometry>
                </mxCell>
                <mxCell id="380" value="MedicalRecordManagement" style="html=1;dropTarget=0;fillColor=#f2dbc0;strokeColor=#000000;fontColor=#000000;" vertex="1" parent="1">
                    <mxGeometry x="1568" y="1150.07" width="229" height="50" as="geometry"/>
                </mxCell>
                <mxCell id="381" value="" style="shape=module;jettyWidth=8;jettyHeight=4;fillColor=#f2dbc0;strokeColor=#000000;" vertex="1" parent="380">
                    <mxGeometry x="1" width="20" height="20" relative="1" as="geometry">
                        <mxPoint x="-27" y="7" as="offset"/>
                    </mxGeometry>
                </mxCell>
                <mxCell id="382" style="edgeStyle=none;html=1;exitX=1;exitY=0.5;exitDx=0;exitDy=0;exitPerimeter=0;strokeColor=#000000;endArrow=none;endFill=0;" edge="1" parent="1" source="384">
                    <mxGeometry relative="1" as="geometry">
                        <mxPoint x="1625.5" y="1239.1699999999998" as="targetPoint"/>
                    </mxGeometry>
                </mxCell>
                <mxCell id="383" style="edgeStyle=none;html=1;exitX=0;exitY=0.5;exitDx=0;exitDy=0;exitPerimeter=0;strokeColor=#000000;endArrow=none;endFill=0;entryX=0.25;entryY=1;entryDx=0;entryDy=0;" edge="1" parent="1" source="384" target="380">
                    <mxGeometry relative="1" as="geometry">
                        <mxPoint x="1575.52" y="1200.07" as="targetPoint"/>
                    </mxGeometry>
                </mxCell>
                <mxCell id="384" value="" style="shape=providedRequiredInterface;html=1;verticalLabelPosition=bottom;sketch=0;fillColor=none;strokeColor=#000000;direction=south;" vertex="1" parent="1">
                    <mxGeometry x="1618" y="1209.1699999999998" width="15" height="15" as="geometry"/>
                </mxCell>
                <mxCell id="385" value="&lt;br&gt;&lt;br&gt;&lt;font style=&quot;font-size: 23px;&quot;&gt;SARM&lt;/font&gt;&lt;br&gt;&lt;br&gt;&lt;br&gt;&lt;br&gt;&lt;br&gt;&lt;br&gt;&lt;br&gt;&lt;br&gt;&lt;br&gt;&lt;br&gt;&lt;br&gt;&lt;br&gt;&lt;br&gt;&lt;br&gt;&lt;br&gt;&lt;br&gt;&lt;br&gt;&lt;br&gt;&lt;br&gt;&lt;br&gt;&lt;br&gt;&lt;br&gt;&lt;br&gt;&lt;br&gt;&lt;br&gt;&lt;br&gt;&lt;br&gt;&lt;br&gt;&lt;br&gt;&lt;br&gt;&lt;br&gt;&lt;br&gt;&lt;br&gt;" style="shape=folder;fontStyle=1;tabWidth=80;tabHeight=30;tabPosition=left;html=1;boundedLbl=1;strokeColor=#000000;fillColor=#faf5e3;fontColor=#000000;" vertex="1" parent="1">
                    <mxGeometry x="1404" y="1517" width="830" height="570" as="geometry"/>
                </mxCell>
                <mxCell id="386" value="&lt;font style=&quot;font-size: 16px;&quot;&gt;Backend&lt;br&gt;&lt;br&gt;&lt;br&gt;&lt;br&gt;&lt;br&gt;&lt;br&gt;&lt;br&gt;&lt;br&gt;&lt;br&gt;&lt;br&gt;&lt;br&gt;&lt;br&gt;&lt;br&gt;&lt;br&gt;&lt;br&gt;&lt;br&gt;&lt;br&gt;&lt;/font&gt;" style="shape=folder;fontStyle=1;spacingTop=10;tabWidth=40;tabHeight=14;tabPosition=left;html=1;fillColor=#F2DBC0;fontColor=#000000;strokeColor=#000000;" vertex="1" parent="1">
                    <mxGeometry x="1424" y="1627" width="370" height="430" as="geometry"/>
                </mxCell>
                <mxCell id="387" value="&lt;font style=&quot;font-size: 15px;&quot;&gt;Frontend&lt;br&gt;&lt;br&gt;&lt;br&gt;&lt;br&gt;&lt;br&gt;&lt;br&gt;&lt;br&gt;&lt;br&gt;&lt;br&gt;&lt;br&gt;&lt;br&gt;&lt;br&gt;&lt;br&gt;&lt;/font&gt;" style="shape=folder;fontStyle=1;spacingTop=10;tabWidth=40;tabHeight=14;tabPosition=left;html=1;fillColor=#F2DBC0;fontColor=#000000;strokeColor=#000000;" vertex="1" parent="1">
                    <mxGeometry x="1884" y="1627" width="330" height="310" as="geometry"/>
                </mxCell>
                <mxCell id="388" style="edgeStyle=none;html=1;exitX=0.5;exitY=1;exitDx=0;exitDy=0;exitPerimeter=0;entryX=0;entryY=0;entryDx=0;entryDy=42;entryPerimeter=0;dashed=1;strokeColor=#000000;strokeWidth=1;endArrow=open;endFill=0;" edge="1" parent="1" source="389" target="391">
                    <mxGeometry relative="1" as="geometry">
                        <Array as="points">
                            <mxPoint x="1514" y="1889"/>
                        </Array>
                    </mxGeometry>
                </mxCell>
                <mxCell id="389" value="Planning" style="shape=folder;fontStyle=1;spacingTop=10;tabWidth=40;tabHeight=14;tabPosition=left;html=1;fillColor=#FFCCCC;fontColor=#000000;strokeColor=#000000;" vertex="1" parent="1">
                    <mxGeometry x="1444" y="1727" width="140" height="70" as="geometry"/>
                </mxCell>
                <mxCell id="390" style="edgeStyle=none;html=1;exitX=0.5;exitY=1;exitDx=0;exitDy=0;exitPerimeter=0;entryX=0;entryY=0;entryDx=122.5;entryDy=14;entryPerimeter=0;dashed=1;strokeColor=#000000;endArrow=open;endFill=0;" edge="1" parent="1" source="391" target="397">
                    <mxGeometry relative="1" as="geometry"/>
                </mxCell>
                <mxCell id="391" value="ManagementCore" style="shape=folder;fontStyle=1;spacingTop=10;tabWidth=40;tabHeight=14;tabPosition=left;html=1;fillColor=#FFCCCC;fontColor=#000000;strokeColor=#000000;" vertex="1" parent="1">
                    <mxGeometry x="1634" y="1847" width="140" height="70" as="geometry"/>
                </mxCell>
                <mxCell id="392" style="edgeStyle=none;html=1;exitX=0;exitY=0;exitDx=0;exitDy=42;exitPerimeter=0;entryX=0.5;entryY=1;entryDx=0;entryDy=0;entryPerimeter=0;dashed=1;strokeColor=#000000;fontColor=#000000;endArrow=open;endFill=0;" edge="1" parent="1" source="394" target="395">
                    <mxGeometry relative="1" as="geometry">
                        <Array as="points">
                            <mxPoint x="1984" y="1879"/>
                        </Array>
                    </mxGeometry>
                </mxCell>
                <mxCell id="393" style="edgeStyle=none;html=1;exitX=0;exitY=0;exitDx=0;exitDy=56;exitPerimeter=0;entryX=0;entryY=0;entryDx=140;entryDy=42;entryPerimeter=0;strokeColor=#000000;dashed=1;strokeWidth=1;endArrow=open;endFill=0;" edge="1" parent="1" source="394" target="391">
                    <mxGeometry relative="1" as="geometry"/>
                </mxCell>
                <mxCell id="394" value="Web SPA" style="shape=folder;fontStyle=1;spacingTop=10;tabWidth=40;tabHeight=14;tabPosition=left;html=1;fillColor=#FFCCCC;fontColor=#000000;strokeColor=#000000;" vertex="1" parent="1">
                    <mxGeometry x="2064" y="1837" width="140" height="70" as="geometry"/>
                </mxCell>
                <mxCell id="395" value="Visualization 3D" style="shape=folder;fontStyle=1;spacingTop=10;tabWidth=40;tabHeight=14;tabPosition=left;html=1;fillColor=#FFCCCC;fontColor=#000000;strokeColor=#000000;" vertex="1" parent="1">
                    <mxGeometry x="1914" y="1722" width="140" height="70" as="geometry"/>
                </mxCell>
                <mxCell id="396" style="edgeStyle=none;html=1;dashed=1;strokeColor=#000000;fontColor=#000000;endArrow=open;endFill=0;exitX=0;exitY=0;exitDx=0;exitDy=42;exitPerimeter=0;" edge="1" parent="1" source="395">
                    <mxGeometry relative="1" as="geometry">
                        <mxPoint x="1914" y="1777" as="sourcePoint"/>
                        <mxPoint x="1584" y="1767" as="targetPoint"/>
                    </mxGeometry>
                </mxCell>
                <mxCell id="397" value="MedicalRecordManagement" style="shape=folder;fontStyle=1;spacingTop=10;tabWidth=40;tabHeight=14;tabPosition=left;html=1;fillColor=#FFCCCC;fontColor=#000000;strokeColor=#000000;" vertex="1" parent="1">
                    <mxGeometry x="1524" y="1967" width="205" height="70" as="geometry"/>
                </mxCell>
                <mxCell id="399" style="edgeStyle=none;html=1;exitX=0;exitY=0;exitDx=104;exitDy=105;exitPerimeter=0;entryX=0.5;entryY=0;entryDx=0;entryDy=0;endArrow=open;endFill=0;strokeColor=#000000;dashed=1;strokeWidth=2;" edge="1" parent="1" source="297" target="372">
                    <mxGeometry relative="1" as="geometry"/>
                </mxCell>
                <mxCell id="400" style="edgeStyle=none;html=1;exitX=0.25;exitY=1;exitDx=0;exitDy=0;entryX=0.5;entryY=0;entryDx=0;entryDy=0;dashed=1;strokeColor=#000000;strokeWidth=2;endArrow=open;endFill=0;" edge="1" parent="1" source="295" target="369">
                    <mxGeometry relative="1" as="geometry"/>
                </mxCell>
                <mxCell id="401" style="edgeStyle=none;html=1;exitX=0;exitY=0;exitDx=104;exitDy=130;exitPerimeter=0;entryX=0.5;entryY=0;entryDx=0;entryDy=0;dashed=1;strokeColor=#000000;strokeWidth=2;endArrow=open;endFill=0;" edge="1" parent="1" source="307" target="380">
                    <mxGeometry relative="1" as="geometry"/>
                </mxCell>
                <mxCell id="402" style="edgeStyle=none;html=1;exitX=0.75;exitY=1;exitDx=0;exitDy=0;entryX=0.5;entryY=0;entryDx=0;entryDy=0;dashed=1;strokeColor=#000000;strokeWidth=2;endArrow=open;endFill=0;" edge="1" parent="1" source="303" target="349">
                    <mxGeometry relative="1" as="geometry"/>
                </mxCell>
                <mxCell id="403" style="edgeStyle=none;html=1;exitX=0.5;exitY=1;exitDx=0;exitDy=0;entryX=0.25;entryY=0;entryDx=0;entryDy=0;dashed=1;strokeColor=#000000;strokeWidth=2;endArrow=open;endFill=0;" edge="1" parent="1" source="305" target="346">
                    <mxGeometry relative="1" as="geometry"/>
                </mxCell>
                <mxCell id="404" style="edgeStyle=none;html=1;exitX=0.75;exitY=1;exitDx=0;exitDy=0;dashed=1;strokeColor=#000000;strokeWidth=2;endArrow=open;endFill=0;" edge="1" parent="1" source="349">
                    <mxGeometry relative="1" as="geometry">
                        <mxPoint x="2158" y="1852" as="targetPoint"/>
                    </mxGeometry>
                </mxCell>
                <mxCell id="405" style="edgeStyle=none;html=1;exitX=0.25;exitY=1;exitDx=0;exitDy=0;dashed=1;strokeColor=#000000;strokeWidth=2;endArrow=open;endFill=0;entryX=0;entryY=0;entryDx=90;entryDy=14;entryPerimeter=0;" edge="1" parent="1" source="346" target="395">
                    <mxGeometry relative="1" as="geometry"/>
                </mxCell>
                <mxCell id="406" style="edgeStyle=none;html=1;exitX=0.75;exitY=1;exitDx=0;exitDy=0;entryX=0;entryY=0;entryDx=90;entryDy=14;entryPerimeter=0;dashed=1;strokeColor=#000000;strokeWidth=2;endArrow=open;endFill=0;" edge="1" parent="1" source="369" target="391">
                    <mxGeometry relative="1" as="geometry"/>
                </mxCell>
                <mxCell id="407" style="edgeStyle=none;html=1;exitX=0.25;exitY=1;exitDx=0;exitDy=0;entryX=0;entryY=0;entryDx=90;entryDy=14;entryPerimeter=0;dashed=1;strokeColor=#000000;strokeWidth=2;endArrow=open;endFill=0;" edge="1" parent="1" source="372" target="389">
                    <mxGeometry relative="1" as="geometry"/>
                </mxCell>
                <mxCell id="408" style="edgeStyle=none;html=1;exitX=0.75;exitY=1;exitDx=0;exitDy=0;entryX=0;entryY=0;entryDx=122.5;entryDy=14;entryPerimeter=0;dashed=1;strokeColor=#000000;strokeWidth=2;endArrow=open;endFill=0;" edge="1" parent="1" source="380" target="397">
                    <mxGeometry relative="1" as="geometry"/>
                </mxCell>
            </root>
        </mxGraphModel>
    </diagram>
</mxfile>